<svg height="24" width="24" version="1.1" id="Capa_1" xmlns="http://www.w3.org/2000/svg"
    xmlns:xlink="http://www.w3.org/1999/xlink" viewBox="0 0 168.492 168.492" xml:space="preserve" fill="#000000">
    <g id="SVGRepo_bgCarrier" stroke-width="0"></g>
    <g id="SVGRepo_tracerCarrier" stroke-linecap="round" stroke-linejoin="round"></g>
    <g id="SVGRepo_iconCarrier">
        <g>
            <path style="fill:#0B966A;"
                d="M168.492,154.222c0,7.882-6.388,14.271-14.271,14.271H14.27C6.388,168.492,0,162.104,0,154.222 V14.271C0,6.388,6.388,0,14.27,0h139.952c7.883,0,14.271,6.388,14.271,14.271V154.222z">
            </path>
            <g>
                <g>
                    <circle style="fill:#F6921E;" cx="84.244" cy="84.246" r="32.521"></circle>
                    <path style="fill:#FAAF3B;"
                        d="M119.554,131.384l-1.335-13.821l13.038,1.14c0.517,0.048,1.027-0.189,1.324-0.616 c0.299-0.426,0.347-0.983,0.129-1.454l-5.809-12.456l14.013-3.889c0.502-0.136,0.893-0.535,1.024-1.039 c0.131-0.508-0.02-1.043-0.389-1.41l-10.107-9.926l11.028-7.723c0.43-0.299,0.663-0.806,0.619-1.324 c-0.045-0.519-0.365-0.976-0.837-1.195l-12.323-5.744l7.995-11.64c0.296-0.429,0.34-0.986,0.114-1.458 c-0.225-0.468-0.685-0.783-1.202-0.827l-14.124-1.106l3.595-13.415c0.135-0.507-0.01-1.042-0.379-1.413 c-0.367-0.368-0.905-0.513-1.41-0.376l-13.276,3.556l-1.319-13.682c-0.051-0.518-0.374-0.973-0.85-1.187 c-0.475-0.218-1.029-0.165-1.453,0.139l-11.308,8.066l-5.985-12.837c-0.222-0.474-0.677-0.792-1.197-0.839 c-0.521-0.045-1.025,0.192-1.323,0.619L79.71,37.092l-9.701-9.529c-0.372-0.365-0.91-0.505-1.414-0.365 c-0.503,0.139-0.894,0.538-1.023,1.042l-3.369,13.036l-12.838-5.987c-0.47-0.217-1.028-0.173-1.453,0.128 c-0.43,0.301-0.662,0.805-0.619,1.324l1.27,14.488l-13.699-1.073c-0.52-0.042-1.025,0.195-1.318,0.627 c-0.297,0.432-0.338,0.986-0.114,1.455l5.636,11.812l-13.411,3.596c-0.504,0.134-0.899,0.529-1.033,1.031 c-0.135,0.507,0.01,1.045,0.378,1.413l10.479,10.479L25.99,88.766c-0.426,0.301-0.658,0.809-0.605,1.326 c0.051,0.521,0.372,0.973,0.847,1.193l11.776,5.362l-7.72,11.023c-0.3,0.427-0.349,0.983-0.127,1.455 c0.219,0.474,0.677,0.794,1.195,0.842l14.763,1.287l-3.638,14.075c-0.133,0.505,0.017,1.045,0.391,1.407 c0.37,0.368,0.908,0.505,1.413,0.368l12.608-3.501l1.141,13.036c0.044,0.518,0.362,0.975,0.837,1.195 c0.473,0.221,1.027,0.173,1.457-0.125l11.906-8.34l6.384,13.373c0.222,0.469,0.682,0.789,1.203,0.825 c0.521,0.042,1.021-0.198,1.318-0.627l7.62-11.093l9.15,9.148c0.367,0.37,0.905,0.516,1.41,0.379 c0.504-0.137,0.897-0.529,1.034-1.031l3.65-13.635l13.487,6.143c0.473,0.218,1.028,0.165,1.454-0.14 C119.371,132.409,119.6,131.902,119.554,131.384z M61.247,107.241c-12.679-12.679-12.679-33.312,0-45.99 c12.682-12.682,33.312-12.679,45.992,0c12.681,12.682,12.681,33.312,0.002,45.99C94.56,119.923,73.929,119.923,61.247,107.241z">
                    </path>
                </g>
            </g>
        </g>
    </g>
</svg>